# xmcd
#
# Track frame offsets:
#	150
#	18558
#	39515
#	54021
#	72933
#	91769
#	105020
#	120813
#	135105
#	149815
#	171166
#	185072
#	200844
#
# Disc length: 3232 seconds
#
# Revision: 4
# Processed by: cddbd v1.5.2PL0 Copyright (c) Steve Scherf et al.
# Submitted via: audiograbber 1.83.01
#
DISCID=a70c9e0d
DTITLE=Tilman Rossmy - Selbst
DYEAR=1997
DGENRE=Alternative
TTITLE0=Wittgenstein sagt
TTITLE1=Maria
TTITLE2=Das Feld der Liebe
TTITLE3=Immer jemand da für Dich
TTITLE4=Leidenschaft
TTITLE5=Lieber allein
TTITLE6=Meine Philosophie
TTITLE7=Ich steh allein
TTITLE8=Irgendwann
TTITLE9=Zug nach Lübeck
TTITLE10=Ich hab das Licht in Deinen Augen gesehen
TTITLE11=Dieses gute wilde Leben
TTITLE12=Ich bin nicht mehr so traurig
EXTD=LADO 17044-2\n
EXTT0=
EXTT1=
EXTT2=
EXTT3=
EXTT4=
EXTT5=
EXTT6=
EXTT7=
EXTT8=
EXTT9=
EXTT10=
EXTT11=
EXTT12=
PLAYORDER=
